<svg width="52" height="26" viewBox="0 0 52 26" fill="none" xmlns="http://www.w3.org/2000/svg">
<g clip-path="url(#clip0_2_362)">
<path d="M39.3091 17.0535C39.8738 17.0535 40.3056 17.3981 40.3056 18.22V24.5294C40.3056 25.391 39.8738 25.7423 39.3091 25.7423C38.7443 25.7423 38.3125 25.3976 38.3125 24.5294V18.3459C38.3125 17.3517 38.7045 17.0469 39.3091 17.0469" fill="#0E39A9"/>
<path d="M20.2858 21.7193V20.248C20.2858 19.2936 19.8539 18.8628 19.07 18.8628H18.8109C18.0336 18.8628 17.5951 19.2936 17.5951 20.248V21.7193H20.2791H20.2858ZM17.5087 23.363V24.5294C17.5087 25.391 17.0769 25.7423 16.5122 25.7423C15.9475 25.7423 15.5156 25.3976 15.5156 24.5294V20.248C15.5156 18.2597 16.645 17.0469 18.4189 17.0469H19.1962C21.0166 17.0469 22.146 18.2597 22.146 20.248V24.5294C22.146 25.391 21.7142 25.7423 21.1495 25.7423C20.5847 25.7423 20.1529 25.3976 20.1529 24.5294V23.363H17.5087Z" fill="#0E39A9"/>
<path d="M51.0044 17.0535C51.5691 17.0535 52.0009 17.3981 52.0009 18.22V24.5294C52.0009 25.391 51.5691 25.7423 51.0044 25.7423C50.4397 25.7423 50.0078 25.3976 50.0078 24.5294V18.3459C50.0543 17.3517 50.4397 17.0469 51.0044 17.0469" fill="#0E39A9"/>
<path d="M43.595 20.812L43.6415 24.5301C43.6415 25.3917 43.2097 25.743 42.645 25.743C42.0803 25.743 41.6484 25.3983 41.6484 24.5301V17.9622C41.6484 17.3591 41.9939 17.0078 42.6051 17.0078C43.2163 17.0078 43.3824 17.2265 43.688 17.6573L46.6777 22.0647L46.6312 18.214C46.6312 17.3922 47.063 17.0476 47.6277 17.0476C48.1925 17.0476 48.6243 17.3922 48.6243 18.214V24.8284C48.6243 25.4315 48.2788 25.7827 47.6676 25.7827C47.0564 25.7827 46.8903 25.564 46.5847 25.0935L43.595 20.812Z" fill="#0E39A9"/>
<path d="M32.0244 22.2368V24.5299C32.0244 25.3915 31.5925 25.7427 31.0278 25.7427C30.4631 25.7427 30.0312 25.3981 30.0312 24.5299V18.2602C30.0312 17.4384 30.4232 17.0938 31.0278 17.0938C31.6324 17.0938 32.0244 17.4384 32.0244 18.2602V20.4208H34.8811V18.2602C34.8811 17.4384 35.313 17.0938 35.8777 17.0938C36.4424 17.0938 36.8742 17.4384 36.8742 18.2602V24.5697C36.8742 25.4312 36.4823 25.7825 35.8777 25.7825C35.2731 25.7825 34.8811 25.4379 34.8811 24.5697V22.2765H32.0244V22.2301V22.2368Z" fill="#0E39A9"/>
<path d="M1.95324 24.0522H3.16903C3.82011 24.0522 4.16558 23.7076 4.16558 23.0581C4.16558 22.4086 3.73374 22.064 2.90993 22.064H1.95324V24.0522ZM1.95324 20.4203H2.64418C3.24875 20.4203 3.68724 20.0757 3.68724 19.5123C3.68724 18.949 3.38163 18.6905 2.73055 18.6905H1.95324V20.4203ZM4.77016 21.1162C5.63383 21.4211 6.15868 22.2429 6.15868 23.1045C6.15868 24.7481 5.11563 25.782 3.03616 25.782H0.950045C0.259103 25.782 0 25.5633 0 24.9602V17.8687C0 17.3517 0.259103 17.0469 0.950045 17.0469H2.7239C4.71701 17.0469 5.54082 17.9549 5.54082 19.34C5.49432 20.2016 5.14884 20.8113 4.76351 21.1096" fill="#0E39A9"/>
<path d="M26.9489 23.2323C26.9489 22.9274 26.8626 22.6689 26.6898 22.543C26.5171 22.3707 26.1251 22.1984 25.6069 22.026C24.132 21.5091 23.3547 20.727 23.3547 19.4347C23.3547 18.1423 23.6138 18.0097 24.1785 17.5325C24.7432 17.0554 25.4342 16.7969 26.3045 16.7969C27.6465 16.7969 28.5168 17.3138 28.5168 18.0959C28.5168 18.8779 28.2112 19.0039 27.6532 19.0039C27.0951 19.0039 27.3077 18.9575 27.0884 18.8315C26.8692 18.699 26.6101 18.6128 26.3111 18.6128C25.7066 18.6128 25.3611 18.9177 25.3611 19.4347C25.3611 19.9516 25.7531 20.1703 26.5304 20.4752C27.4406 20.8198 28.0451 21.1645 28.4371 21.5555C28.8291 21.9465 29.0018 22.4635 29.0018 23.1991C29.0018 23.9348 28.6962 24.7566 28.1381 25.2736C27.5336 25.7905 26.7961 26.0092 25.8859 26.0092C24.9758 26.0092 24.5439 25.8767 24.0656 25.5784C23.5872 25.2736 23.3281 24.9753 23.3281 24.5843C23.3281 24.1933 23.7201 23.6365 24.3247 23.6365C24.9292 23.6365 24.7167 23.7227 25.0156 23.8552C25.3212 24.0276 25.6202 24.1137 25.9723 24.1137C26.5769 24.1601 26.9689 23.7691 26.9689 23.2521" fill="#0E39A9"/>
<path d="M9.31341 22.2368V24.5299C9.31341 25.3915 8.88157 25.7427 8.31686 25.7427C7.75215 25.7427 7.32031 25.3981 7.32031 24.5299V18.2602C7.32031 17.4384 7.71229 17.0938 8.31686 17.0938C8.92144 17.0938 9.31341 17.4384 9.31341 18.2602V20.4208H12.1702V18.2602C12.1702 17.4384 12.602 17.0938 13.1667 17.0938C13.7315 17.0938 14.1633 17.4384 14.1633 18.2602V24.5697C14.1633 25.4312 13.7713 25.7825 13.1667 25.7825C12.5622 25.7825 12.1702 25.4379 12.1702 24.5697V22.2765H9.31341V22.2301V22.2368Z" fill="#0E39A9"/>
<path fill-rule="evenodd" clip-rule="evenodd" d="M27.8261 9.90876L27.5205 10.4721C26.9159 11.5126 26.0456 12.3278 25.0092 12.9376C24.9228 12.984 24.8364 13.0237 24.7035 13.0701C24.6172 13.1165 24.4843 13.1563 24.3979 13.2027C26.3047 12.858 28.0387 11.8175 29.2943 10.3064C30.3374 9.0074 31.4602 6.93297 31.2874 4.60006C31.1546 2.35331 29.859 0.623511 27.9523 0.146325C25.9127 -0.370626 24.3979 0.537353 23.2752 2.00205C23.1423 2.17437 23.0161 2.39308 22.9297 2.56539C24.4444 1.82973 26.2249 1.4851 27.6932 2.56539C28.9954 3.51976 29.3807 5.41525 29.0352 7.10529C28.816 8.01327 28.4705 8.83509 27.9523 9.61051C27.9988 9.65691 27.8659 9.82922 27.8194 9.91538" fill="#E76120"/>
<path fill-rule="evenodd" clip-rule="evenodd" d="M22.5738 13.0278C22.4409 13.114 21.8829 12.9416 21.75 12.9416C22.142 13.1603 22.5738 13.2863 23.0057 13.3327C23.484 13.3327 23.9623 13.2863 24.434 13.1604C24.5204 13.114 24.6533 13.0742 24.7397 13.0278C24.826 12.9814 24.9124 12.9416 25.0453 12.8952C26.0883 12.3319 26.952 11.4703 27.5566 10.4298L27.8622 9.91283C27.9087 9.78028 27.9951 9.65436 28.0349 9.5682C28.4668 8.61383 28.686 7.57992 28.6395 6.53939C28.593 5.97605 28.4202 5.4127 28.1611 4.89575C27.7293 4.16009 27.0317 3.64314 26.2544 3.38466C25.4771 3.12619 24.6068 3.21235 23.8295 3.55698C23.0057 3.94801 22.3546 4.55112 21.9227 5.37294C21.8762 5.50549 21.7899 5.59165 21.75 5.71757C21.8829 5.67118 22.0091 5.58502 22.142 5.54526C22.5738 5.32655 23.0057 5.20062 23.4441 5.11446C24.6998 4.89575 26.002 5.33317 26.653 6.36708C26.9586 6.97019 27.0849 7.66608 26.9586 8.31559C26.8258 9.48204 26.3541 10.6087 25.6166 11.5565C25.4439 11.7752 25.2711 11.9873 25.0519 12.1596C24.8327 12.3319 24.6201 12.5042 24.4008 12.6368C23.9225 12.8555 23.0588 13.2001 22.5805 13.0278" fill="#009844"/>
<path fill-rule="evenodd" clip-rule="evenodd" d="M21.7498 12.9394C21.8826 12.9858 22.4407 13.1117 22.5736 13.0256C22.4872 12.9792 22.3543 12.9394 22.3145 12.893C22.2281 12.8068 22.1816 12.7207 22.1417 12.6345C21.8826 12.0314 22.0952 10.9511 22.2281 10.3878C22.361 9.91059 22.4872 9.4798 22.6201 9.04901L23.0519 7.75H21.3179C21.1452 8.18079 21.0123 8.61159 20.926 9.08877C20.6203 10.3016 20.3214 12.3761 21.7498 12.9394Z" fill="#005BA1"/>
<path fill-rule="evenodd" clip-rule="evenodd" d="M21.2812 6.58704L21.4141 6.71959C21.5005 6.63344 21.6334 6.54728 21.7197 6.46112C21.8526 6.37496 22.0253 6.32857 22.1981 6.32857C22.3708 6.32857 22.5037 6.37496 22.6764 6.46112C22.7229 6.50751 22.8093 6.54728 22.8492 6.59367C22.8957 6.64006 22.9355 6.67983 23.0219 6.72622L23.1548 6.59367C23.0684 6.46112 22.8957 6.37496 22.7628 6.2888C22.5901 6.20264 22.4173 6.15625 22.1981 6.15625C21.9788 6.15625 21.8061 6.20264 21.6334 6.2888C21.5005 6.42135 21.3743 6.50751 21.2879 6.59367" fill="#005BA1"/>
<path fill-rule="evenodd" clip-rule="evenodd" d="M21.4922 6.84463L21.6251 6.97719C21.7579 6.84463 21.8842 6.80487 22.0569 6.75848C22.2296 6.71208 22.3625 6.75848 22.5352 6.80487C22.6216 6.85126 22.708 6.89103 22.7545 6.97719L22.9272 6.80487C22.7545 6.63255 22.4954 6.5 22.2363 6.5C21.9772 6.5 21.9772 6.54639 21.8443 6.58616C21.7114 6.67232 21.5852 6.75848 21.4988 6.84463" fill="#005BA1"/>
<path fill-rule="evenodd" clip-rule="evenodd" d="M21.75 7.10863L21.8829 7.24118L21.9294 7.19479C22.0157 7.1484 22.1021 7.10863 22.1885 7.10863C22.4077 7.10863 22.4077 7.19479 22.534 7.24118L22.6203 7.10863C22.5738 7.06224 22.4874 6.97608 22.4011 6.97608C22.3147 6.92969 22.2283 6.92969 22.142 6.92969C22.0556 6.92969 21.9692 6.92969 21.8829 6.97608L21.75 7.10863Z" fill="#005BA1"/>
<path fill-rule="evenodd" clip-rule="evenodd" d="M21.9754 7.36693L22.2345 7.6254L22.4537 7.36693C22.4227 7.336 22.3939 7.30728 22.3674 7.28077C22.3209 7.28077 22.281 7.23438 22.2345 7.23438C22.188 7.23438 22.1481 7.23438 22.1016 7.28077C22.0153 7.28077 22.0153 7.32716 21.9688 7.36693" fill="#005BA1"/>
</g>
<defs>
<clipPath id="clip0_2_362">
<rect width="52" height="26" fill="white"/>
</clipPath>
</defs>
</svg>
